<svg width="250" height="63" viewBox="0 0 250 63" fill="none" xmlns="http://www.w3.org/2000/svg">
<path d="M11.4404 16.0709C11.6078 16.0151 11.7194 15.9035 11.8868 15.8477C10.2128 13.8388 10.157 12.946 10.436 12.5554C11.4404 11.2162 14.3979 9.82113 18.7504 9.82113C21.2057 9.82113 23.7167 10.2675 26.1162 11.1604C29.9665 12.5554 32.4218 13.6156 34.04 14.2853C35.6583 14.9549 36.6069 15.3455 37.6113 15.5687C38.3926 15.7361 39.118 15.7919 39.7318 15.7919C40.1224 15.7919 40.513 15.7361 40.8478 15.6803C40.6246 15.2339 40.4572 14.7875 40.234 14.3411C39.8992 13.6714 39.5644 13.0018 39.1738 12.3322C38.8948 12.3322 38.6158 12.2764 38.281 12.2206C37.6113 12.0532 36.7743 11.7184 35.3235 11.1046C33.6494 10.435 31.1942 9.37472 27.2322 7.92388C24.498 6.91945 21.5963 6.41724 18.7504 6.41724C13.8957 6.41724 9.65474 7.97968 7.81328 10.4908C6.02763 12.8344 7.36687 15.5129 8.87351 17.5218C9.71054 17.0195 10.5476 16.5173 11.4404 16.0709Z" fill="#009FE3"/>
<path d="M45.7026 11.7183C45.7584 11.8857 45.8142 11.9973 45.9258 12.1647C46.8186 11.3835 47.9347 10.6023 48.6601 10.6023C48.8275 10.6023 48.9391 10.6581 49.0507 10.7697C51.2828 12.4995 53.0684 19.2515 50.4457 26.7848C49.1065 30.6909 48.1021 33.1461 47.4325 34.8202C46.7628 36.4942 46.3722 37.4429 46.149 38.4473C45.87 39.7865 45.87 40.8468 45.9816 41.7396C46.428 41.5164 46.8744 41.349 47.3209 41.07C48.0463 40.7352 48.6601 40.3445 49.2739 39.9539C49.2739 39.6749 49.3297 39.3959 49.3855 39.0611C49.4971 38.3915 49.8877 37.4987 50.4457 36.0478C51.1154 34.3738 52.1198 31.8069 53.5706 27.7892C56.5839 19.0841 54.6309 10.7139 51.0596 7.92382C50.3341 7.3658 49.4971 7.08679 48.6043 7.08679C47.0418 7.08679 45.5352 7.97962 44.2518 8.98405C44.8098 9.93267 45.312 10.7697 45.7026 11.7183Z" fill="#009FE3"/>
<path d="M49.9434 46.7618C49.776 46.8176 49.6644 46.9292 49.497 46.985C51.171 48.9938 51.2268 49.8866 50.9478 50.2773C49.9434 51.6165 46.9859 53.0115 42.6334 53.0115C40.2339 53.0115 37.667 52.5651 35.2676 51.6723C31.4173 50.2773 29.0178 49.2728 27.3995 48.5474C25.7813 47.8778 24.8327 47.4314 23.8282 47.264C23.047 47.0966 22.3774 47.0408 21.7636 47.0408C21.3172 47.0408 20.9266 47.0966 20.5918 47.1524C20.7592 47.5988 20.9824 48.0452 21.2056 48.4916C21.5404 49.1612 21.8752 49.8308 22.3216 50.5005C22.6006 50.5005 22.8796 50.5563 23.1586 50.6121C23.8282 50.7795 24.7211 51.1143 26.1161 51.7281C27.7902 52.3977 30.2454 53.4579 34.2073 54.9088C36.9416 55.9132 39.8433 56.4154 42.6892 56.4154C46.9301 56.4154 51.7848 54.853 53.6821 52.3419C55.4678 49.9983 54.1285 47.3198 52.6219 45.3109C51.729 45.8689 50.8362 46.3153 49.9434 46.7618Z" fill="#009FE3"/>
<path d="M15.6815 51.1701C15.6257 51.0027 15.5141 50.8353 15.4583 50.6679C14.5097 51.5607 13.5053 52.3977 12.8357 52.3977C12.7799 52.3977 12.6125 52.3977 12.2777 52.1745C10.0456 50.4446 8.25994 43.6927 10.8826 36.1594C12.2777 32.1975 13.2821 29.6864 13.9517 28.0682C14.6213 26.3942 15.0119 25.4455 15.2351 24.4411C15.5141 23.1019 15.5141 22.0416 15.4025 21.1488C14.9561 21.372 14.5097 21.5394 14.0633 21.7626C13.3379 22.0974 12.7241 22.488 12.1102 22.8787C12.1102 23.1577 12.0544 23.4367 11.9986 23.7715C11.887 24.4411 11.4964 25.3339 10.9384 26.7848C10.2688 28.4588 9.20856 31.0257 7.81352 35.0434C4.74443 43.6927 6.69749 52.0629 10.2688 54.853C11.05 55.4668 11.9428 55.8016 12.8357 55.8016C14.3981 55.8016 15.7374 54.9088 17.0766 53.7369C16.5744 52.8999 16.0722 52.0629 15.6815 51.1701Z" fill="#009FE3"/>
<path d="M6.47375 34.4854C6.52955 34.318 6.58535 34.1506 6.64115 33.9274C4.13008 33.76 3.46046 33.481 3.34886 32.6998C2.95825 29.8539 6.36214 23.8273 13.4489 20.3676C17.1319 18.582 19.5871 17.5217 21.2054 16.8521C22.8236 16.1825 23.7722 15.7361 24.6093 15.1781C25.7253 14.3968 26.5065 13.6714 27.0087 12.946C26.5623 12.7786 26.1159 12.6112 25.6137 12.4438C24.9441 12.1648 24.2187 11.9974 23.4932 11.7742C23.27 11.9416 23.0468 12.109 22.7678 12.3322C22.2098 12.7228 21.317 13.0576 19.9219 13.6714C18.3037 14.3968 15.7926 15.4571 11.9981 17.2427C3.85107 21.3162 -0.557255 28.6821 0.056563 33.202C0.447174 36.4385 3.18145 37.1081 5.63672 37.3313C5.85993 36.3827 6.13894 35.434 6.47375 34.4854Z" fill="#009FE3"/>
<path d="M27.6785 6.64039C27.8459 6.69619 28.0134 6.75199 28.1808 6.8078C28.404 4.24092 28.962 3.5155 29.4084 3.4597C29.52 3.4597 29.6874 3.4597 29.799 3.4597C33.0913 3.4597 38.4482 7.42161 41.4057 13.783C43.1356 17.5775 44.1958 20.0886 44.8654 21.7068C45.5351 23.3251 45.9257 24.3295 46.4837 25.2223C47.2091 26.3942 47.9345 27.1196 48.6599 27.6776C48.8273 27.2312 48.9948 26.7848 49.1622 26.2826C49.4412 25.5013 49.6086 24.7759 49.8318 24.0505C49.6644 23.8273 49.497 23.6041 49.3296 23.3251C48.939 22.7113 48.6041 21.8742 47.9903 20.4234C47.3207 18.7493 46.2605 16.1825 44.4748 12.3322C40.7919 4.29672 34.1515 0 29.8548 0C29.5758 0 29.2968 0 29.0178 0.0558016C26.1719 0.446413 25.2233 3.23649 24.9443 5.74757C25.8371 6.02657 26.7857 6.30558 27.6785 6.64039Z" fill="#009FE3"/>
<path d="M61.3266 29.6307C60.936 26.6732 58.2017 25.7246 55.7465 25.4456C55.5232 26.3942 55.2442 27.3986 54.9094 28.3472C54.8536 28.5146 54.7978 28.682 54.742 28.7937C57.2531 29.0169 57.9227 29.5749 57.9785 30.0771C58.3691 32.923 54.9652 38.9495 47.8784 42.4092C44.1955 44.1949 41.7403 45.2551 40.122 45.9247C38.5038 46.5944 37.5551 47.0408 36.7181 47.5988C35.6021 48.38 34.8209 49.1054 34.3186 49.8309C34.7651 49.9983 35.2115 50.1657 35.7137 50.3331C36.3833 50.6121 37.1087 50.7795 37.8341 51.0027C38.0573 50.8353 38.2806 50.6679 38.5596 50.4447C39.1176 50.0541 40.0104 49.7193 41.4054 49.1054C43.0237 48.38 45.5348 47.3198 49.3293 45.5341C57.5321 41.5722 61.9404 34.2064 61.3266 29.6307Z" fill="#009FE3"/>
<path d="M33.7053 56.248C33.5379 56.1922 33.3705 56.1364 33.2031 56.0806C32.9799 58.6475 32.4219 59.3729 31.9755 59.4287C31.8639 59.4287 31.6965 59.4287 31.5849 59.4287C28.2926 59.4287 22.9356 55.4668 19.9781 49.1054C18.1925 45.3109 17.188 42.7998 16.5184 41.1816C15.8488 39.5075 15.4582 38.5589 14.9002 37.6661C14.1748 36.4942 13.3935 35.7688 12.7239 35.2666C12.5565 35.713 12.3891 36.1594 12.2217 36.6616C11.9427 37.4429 11.7753 38.1683 11.6079 38.8937C11.7753 39.1169 11.9427 39.3401 12.1101 39.6191C12.5007 40.2329 12.8355 41.07 13.4493 42.5766C14.119 44.2507 15.1792 46.8175 16.9648 50.6678C20.7035 58.6475 27.2881 62.9442 31.6407 63C31.9197 63 32.1987 63 32.4777 62.9442C35.3236 62.5536 36.2722 59.7635 36.5512 57.2524C35.5468 56.8618 34.5981 56.5828 33.7053 56.248Z" fill="#009FE3"/>
<path d="M79.0163 46.3152C79.6301 47.0407 80.1881 47.7103 80.7461 48.4357C81.3041 49.1611 81.8621 49.8865 82.4201 50.6678C82.4759 50.7794 82.5317 50.8352 82.5317 50.9468C82.5317 51.0584 82.4759 51.17 82.4201 51.2258C82.3643 51.3374 82.2527 51.3932 82.0853 51.3932C81.9179 51.3932 81.8063 51.3374 81.6947 51.17C81.1367 50.3888 80.5787 49.6075 80.0207 48.8821C79.4627 48.1567 78.8488 47.4313 78.2908 46.7058H76.7284V50.891C76.7284 51.0026 76.6726 51.1142 76.6168 51.2258C76.5052 51.3374 76.3936 51.3374 76.282 51.3374C76.1704 51.3374 76.0588 51.2816 75.9472 51.2258C75.8356 51.1142 75.8356 51.0026 75.8356 50.891V41.6837C75.8356 41.5721 75.8914 41.4605 75.9472 41.4047C76.0588 41.2931 76.1146 41.2931 76.282 41.2931C76.3936 41.2931 76.5052 41.3489 76.6168 41.4047C76.7284 41.5163 76.7284 41.5721 76.7284 41.7395V45.9804H78.235L81.6947 41.5163C81.7505 41.4605 81.8063 41.4047 81.8621 41.3489C81.9179 41.2931 81.9737 41.2931 82.0853 41.2931C82.2527 41.2931 82.3643 41.3489 82.4201 41.4605C82.4759 41.5721 82.5317 41.6279 82.5317 41.7395C82.5317 41.8511 82.4759 41.9627 82.4201 42.0185L79.0163 46.3152Z" fill="white"/>
<path d="M81.0808 30.8025C76.4493 30.8025 74.8869 27.3986 74.8869 23.9389V18.6936C74.8869 15.2339 76.3935 11.83 81.0808 11.83C85.7124 11.83 87.219 15.2339 87.219 18.6936V23.9389C87.2748 27.3986 85.7124 30.8025 81.0808 30.8025ZM85.0427 18.6936C85.0427 16.0709 84.0941 13.9504 81.1366 13.9504C78.1233 13.9504 77.1747 16.0709 77.1747 18.6936V23.9389C77.1747 26.6174 78.1233 28.682 81.1366 28.682C84.0941 28.682 85.0427 26.5616 85.0427 23.9389V18.6936Z" fill="white"/>
<path d="M98.8258 17.7449C99.3838 17.7449 99.886 18.2471 99.886 18.8051V29.7422C99.886 30.356 99.4396 30.8583 98.77 30.8583C98.1004 30.8583 97.7098 30.356 97.7098 29.7422V19.6979H93.0224V22.1532C93.0224 24.7201 92.7434 27.3986 91.9064 29.24C91.3484 30.356 90.8462 30.8025 90.1766 30.8025C89.5628 30.8025 89.1163 30.3002 89.1163 29.7422C89.1163 28.961 89.8418 28.682 90.2324 27.3986C90.7904 25.9477 90.8462 24.0505 90.8462 21.8184V18.8051C90.8462 18.2471 91.2926 17.8007 91.9064 17.8007H98.8258V17.7449Z" fill="white"/>
<path d="M105.801 29.6306C105.801 30.2445 105.355 30.7467 104.685 30.7467C104.016 30.7467 103.569 30.2445 103.569 29.6306V18.7493C103.569 18.1355 104.071 17.6333 104.685 17.6333C105.355 17.6333 105.801 18.1355 105.801 18.7493V25.9477L111.437 19.5864V18.7493C111.437 18.1355 111.884 17.6333 112.553 17.6333C113.167 17.6333 113.613 18.1355 113.613 18.7493V29.6306C113.613 30.2445 113.167 30.7467 112.497 30.7467C111.884 30.7467 111.437 30.2445 111.437 29.6306V22.4322L105.801 28.7936V29.6306Z" fill="white"/>
<path d="M128.568 29.798C128.568 30.3561 128.122 30.8025 127.564 30.8025C127.061 30.8025 126.559 30.3561 126.559 29.798V22.5438L123.825 28.5704C123.602 28.9052 123.323 29.1284 122.932 29.1284C122.597 29.1284 122.263 28.9052 122.095 28.5704L119.417 22.5996V29.798C119.417 30.3561 118.97 30.8025 118.412 30.8025C117.854 30.8025 117.408 30.3561 117.408 29.798V18.6935C117.408 18.1355 117.854 17.6891 118.412 17.6891C118.747 17.6891 119.138 17.9123 119.305 18.2471L123.044 26.1709L126.782 18.2471C126.95 17.9123 127.229 17.6891 127.619 17.6891C128.178 17.6891 128.624 18.1355 128.624 18.6935V29.798H128.568Z" fill="white"/>
<path d="M140.509 17.7449C141.067 17.7449 141.57 18.2471 141.57 18.8051V29.7422C141.57 30.356 141.067 30.8583 140.454 30.8583C139.84 30.8583 139.338 30.356 139.338 29.7422V19.6979H134.483V29.6864C134.483 30.3002 134.036 30.8025 133.423 30.8025C132.809 30.8025 132.307 30.3002 132.307 29.6864V18.8051C132.307 18.2471 132.753 17.7449 133.367 17.7449H140.509Z" fill="white"/>
<path d="M147.541 29.6306C147.541 30.2445 147.094 30.7467 146.48 30.7467C145.811 30.7467 145.364 30.2445 145.364 29.6306V18.7493C145.364 18.1355 145.866 17.6333 146.48 17.6333C147.094 17.6333 147.541 18.1355 147.541 18.7493V25.9477L153.176 19.5864V18.7493C153.176 18.1355 153.623 17.6333 154.293 17.6333C154.906 17.6333 155.353 18.1355 155.353 18.7493V29.6306C155.353 30.2445 154.906 30.7467 154.237 30.7467C153.623 30.7467 153.176 30.2445 153.176 29.6306V22.4322L147.541 28.7936V29.6306Z" fill="white"/>
<path d="M167.908 30.6909C167.462 30.6909 166.96 30.4677 166.625 30.1329C166.402 29.9097 166.234 29.6306 166.123 29.3516C165.23 30.4119 163.723 30.6351 162.663 30.6351C159.594 30.6351 158.31 29.0168 158.31 26.8964V26.7848C158.31 24.6643 159.705 23.1577 162.886 23.1577H165.676V22.5438C165.676 20.535 165.23 19.4748 163.109 19.4748C161.938 19.4748 161.212 19.7538 160.598 20.0886C160.431 20.2002 160.264 20.256 160.096 20.256C159.594 20.256 159.203 19.8096 159.203 19.3073C159.203 19.0283 159.371 18.6935 159.65 18.4703C160.598 17.8565 161.882 17.6333 163.277 17.6333C166.792 17.6333 167.853 19.3632 167.853 22.7112V27.4544C167.853 28.4588 168.076 28.7378 168.522 29.0168C168.801 29.1842 168.969 29.4074 168.969 29.798C169.024 30.4119 168.578 30.6909 167.908 30.6909ZM165.732 24.8317H163.109C161.045 24.8317 160.487 25.7803 160.487 26.8406V27.008C160.487 28.124 161.101 29.0168 163.054 29.0168C164.728 29.0168 165.732 28.124 165.732 26.3383V24.8317Z" fill="white"/>
<path d="M172.261 28.5704C173.098 27.0079 173.21 24.7759 173.21 22.1532V18.7493C173.21 18.1913 173.656 17.7449 174.214 17.7449H180.743C181.301 17.7449 181.803 18.1913 181.803 18.8051V28.6262H183.031C183.533 28.6262 183.979 29.0168 183.979 29.5748V33.7041C183.979 34.2621 183.533 34.7086 183.031 34.7086C182.473 34.7086 182.026 34.2621 182.026 33.7041V30.5792H172.261V33.7041C172.261 34.2621 171.815 34.7086 171.257 34.7086C170.699 34.7086 170.308 34.2621 170.308 33.7041V29.5748C170.308 28.961 170.699 28.6262 171.201 28.6262H172.261V28.5704ZM179.683 28.5704V19.6979H175.33V22.1532C175.33 24.4969 175.163 27.0079 174.437 28.5704H179.683Z" fill="white"/>
<path d="M195.139 30.6909C194.693 30.6909 194.191 30.4677 193.856 30.1329C193.633 29.9097 193.465 29.6306 193.354 29.3516C192.461 30.4119 190.954 30.6351 189.894 30.6351C186.825 30.6351 185.541 29.0168 185.541 26.8964V26.7848C185.541 24.6643 186.936 23.1577 190.117 23.1577H192.907V22.5438C192.907 20.535 192.461 19.4748 190.34 19.4748C189.169 19.4748 188.443 19.7538 187.829 20.0886C187.662 20.2002 187.495 20.256 187.327 20.256C186.825 20.256 186.434 19.8096 186.434 19.3073C186.434 19.0283 186.602 18.6935 186.881 18.4703C187.829 17.8565 189.113 17.6333 190.508 17.6333C194.023 17.6333 195.084 19.3632 195.084 22.7112V27.4544C195.084 28.4588 195.307 28.7378 195.753 29.0168C196.032 29.1842 196.2 29.4074 196.2 29.798C196.255 30.4119 195.809 30.6909 195.139 30.6909ZM192.963 24.8317H190.34C188.276 24.8317 187.718 25.7803 187.718 26.8406V27.008C187.718 28.124 188.332 29.0168 190.285 29.0168C191.959 29.0168 192.963 28.124 192.963 26.3383V24.8317Z" fill="white"/>
<path d="M215.451 13.0019C215.451 12.3881 215.954 11.8859 216.567 11.8859C217.181 11.8859 217.683 12.3881 217.683 13.0019V29.6308C217.683 30.2446 217.181 30.7468 216.567 30.7468C215.954 30.7468 215.451 30.2446 215.451 29.6308V22.544H207.304V29.6308C207.304 30.2446 206.802 30.7468 206.188 30.7468C205.574 30.7468 205.072 30.2446 205.072 29.6308V13.0019C205.072 12.3881 205.574 11.8859 206.188 11.8859C206.802 11.8859 207.304 12.3881 207.304 13.0019V20.4235H215.451V13.0019Z" fill="white"/>
<path d="M228.509 14.2853V29.6307C228.509 30.2445 228.007 30.7467 227.449 30.7467C226.835 30.7467 226.333 30.2445 226.333 29.6307V14.2853H221.645C221.031 14.2853 220.529 13.8389 220.529 13.225C220.529 12.6112 220.976 12.109 221.645 12.109H233.252C233.866 12.109 234.312 12.5554 234.312 13.225C234.312 13.8389 233.866 14.2853 233.252 14.2853H228.509Z" fill="white"/>
<path d="M239.278 29.6307C239.278 30.2445 238.776 30.8025 238.162 30.8025C237.549 30.8025 237.046 30.2445 237.046 29.6307V13.0018C237.046 12.388 237.549 11.8858 238.162 11.8858C238.776 11.8858 239.278 12.4438 239.278 13.0018V24.8875L247.76 14.5642V12.946C247.76 12.3322 248.263 11.83 248.876 11.83C249.49 11.83 249.992 12.388 249.992 12.946V29.5749C249.992 30.1887 249.49 30.7467 248.876 30.7467C248.263 30.7467 247.76 30.1887 247.76 29.5749V17.7449L239.278 28.0124V29.6307Z" fill="white"/>
<path d="M91.2366 48.4359C91.2366 48.8823 91.1808 49.273 91.125 49.6078C91.0134 49.9984 90.9018 50.2774 90.7344 50.5564C90.567 50.8354 90.288 51.0028 90.009 51.1702C89.6742 51.3376 89.3394 51.3934 88.893 51.3934C88.614 51.3934 88.335 51.3376 88.0559 51.2818C87.7769 51.1702 87.4421 51.0586 87.1631 50.8354V53.4023C87.1631 53.5139 87.1073 53.6255 87.0515 53.7371C86.9957 53.7929 86.8841 53.8487 86.7167 53.8487C86.6051 53.8487 86.4935 53.7929 86.4377 53.7371C86.3261 53.6813 86.3261 53.5697 86.3261 53.4023V46.0365C86.3261 45.7575 86.2703 45.5342 86.2145 45.4226C86.1587 45.311 86.0471 45.1994 85.9355 45.1436C85.7681 45.032 85.7123 44.9204 85.7123 44.8088C85.7123 44.6972 85.7681 44.5856 85.8239 44.5298C85.8797 44.474 85.9913 44.4182 86.1587 44.4182C86.2703 44.4182 86.3261 44.4182 86.4935 44.474C86.6051 44.5298 86.7167 44.5856 86.8283 44.6972C86.9399 44.8088 86.9957 44.9204 87.0515 45.032C87.3305 44.8088 87.6653 44.6414 87.9443 44.5856C88.2792 44.474 88.5582 44.4182 88.8372 44.4182C89.73 44.4182 90.3438 44.6414 90.7344 45.1436C91.125 45.59 91.2924 46.2597 91.2924 47.0967V48.4359H91.2366ZM90.3438 47.0967C90.3438 46.4829 90.2322 46.0365 89.9532 45.7017C89.73 45.3668 89.2836 45.2552 88.614 45.2552C88.3908 45.2552 88.1117 45.311 87.8327 45.4226C87.5537 45.5342 87.2747 45.7017 86.9957 45.9249V49.9426C87.2747 50.2216 87.5537 50.389 87.8327 50.5006C88.1117 50.6122 88.3908 50.668 88.614 50.668C89.172 50.668 89.6184 50.5006 89.8974 50.11C90.1764 49.7194 90.288 49.2172 90.288 48.5475V47.0967H90.3438Z" fill="white"/>
<path d="M98.3238 50.389C98.1564 50.947 97.9332 51.4492 97.7099 51.8398C97.4867 52.2862 97.2635 52.621 96.9845 52.9C96.7055 53.1791 96.4265 53.4023 96.0917 53.5697C95.7569 53.7371 95.3663 53.7929 94.9757 53.7929C94.8083 53.7929 94.6967 53.7371 94.6409 53.6813C94.5851 53.5697 94.5293 53.5139 94.5293 53.4023C94.5293 53.2907 94.5851 53.2349 94.6409 53.1232C94.6967 53.0116 94.8083 52.9558 94.9199 52.9558C95.1431 52.9558 95.3105 52.9558 95.5337 52.9C95.7011 52.8442 95.9243 52.7884 96.0917 52.621C96.2591 52.5094 96.4265 52.342 96.5939 52.1188C96.7613 51.8956 96.9287 51.6724 97.0403 51.3376C96.5381 50.1658 96.0917 48.9939 95.7011 47.9337C95.3105 46.8735 94.9757 45.869 94.6409 44.9762C94.6409 44.9204 94.6409 44.8646 94.6409 44.8646C94.6409 44.753 94.6967 44.6414 94.7525 44.5856C94.8641 44.5298 94.9199 44.474 95.0873 44.474C95.1431 44.474 95.2547 44.474 95.3105 44.5298C95.3663 44.5856 95.4221 44.6414 95.4779 44.753C95.7569 45.5342 96.0359 46.4271 96.3707 47.3199C96.7055 48.2685 97.0961 49.2171 97.4867 50.2774L99.384 44.753C99.4398 44.6414 99.4956 44.5856 99.5514 44.5298C99.6072 44.474 99.7188 44.474 99.7746 44.474C99.8862 44.474 99.9978 44.5298 100.109 44.5856C100.221 44.6414 100.221 44.753 100.221 44.8646C100.221 44.8646 100.221 44.9204 100.221 45.032L98.3238 50.389Z" fill="white"/>
<path d="M107.754 50.947C107.754 51.0586 107.699 51.1702 107.643 51.2818C107.531 51.3934 107.475 51.3934 107.308 51.3934C107.196 51.3934 107.085 51.3376 106.973 51.2818C106.862 51.1702 106.862 51.1144 106.862 50.947V48.3243H106.025C105.634 48.7707 105.243 49.2729 104.908 49.7193C104.518 50.1657 104.183 50.6679 103.792 51.226C103.737 51.2818 103.681 51.3376 103.625 51.3934C103.569 51.4492 103.513 51.4492 103.402 51.4492C103.29 51.4492 103.179 51.3934 103.123 51.2818C103.067 51.1702 103.011 51.0586 103.011 51.0028C103.011 50.8912 103.067 50.8354 103.123 50.7795C103.458 50.2773 103.848 49.8309 104.183 49.3845C104.574 48.9381 104.908 48.4917 105.299 47.9895L103.123 45.1994C103.123 45.1436 103.067 45.0878 103.067 45.0878C103.067 45.032 103.067 44.9762 103.067 44.9762C103.067 44.8646 103.123 44.8088 103.179 44.6972C103.234 44.5856 103.346 44.5856 103.513 44.5856C103.681 44.5856 103.792 44.6414 103.904 44.753L106.136 47.6547H106.973V45.032C106.973 44.9204 107.029 44.8088 107.085 44.6972C107.196 44.6414 107.308 44.5856 107.42 44.5856C107.531 44.5856 107.643 44.6414 107.754 44.6972C107.866 44.753 107.866 44.8646 107.866 45.032V47.6547H108.703L110.935 44.753C110.991 44.6414 111.158 44.5856 111.27 44.5856C111.437 44.5856 111.549 44.6414 111.605 44.6972C111.66 44.8088 111.716 44.8646 111.716 44.9762C111.716 45.032 111.716 45.0878 111.716 45.0878C111.716 45.1436 111.716 45.1994 111.66 45.1994L109.428 47.9895C109.819 48.4359 110.21 48.9381 110.544 49.3845C110.935 49.8309 111.27 50.3331 111.605 50.7795C111.66 50.8354 111.66 50.947 111.66 51.0028C111.66 51.1144 111.605 51.226 111.549 51.2818C111.493 51.3934 111.381 51.4492 111.214 51.4492C111.158 51.4492 111.047 51.4492 110.991 51.3934C110.935 51.3376 110.879 51.2818 110.823 51.226C110.489 50.7237 110.098 50.2215 109.707 49.7193C109.317 49.2729 108.982 48.7707 108.591 48.3243H107.754V50.947Z" fill="white"/>
<path d="M115.064 51.0028V44.9204C115.064 44.8088 115.12 44.6972 115.176 44.5856C115.287 44.5298 115.343 44.474 115.455 44.474C115.566 44.474 115.678 44.5298 115.789 44.5856C115.845 44.6414 115.901 44.753 115.901 44.9204V47.5431H116.738L118.97 44.6414C119.026 44.5298 119.193 44.474 119.305 44.474C119.472 44.474 119.584 44.5298 119.64 44.5856C119.695 44.6972 119.751 44.753 119.751 44.8646C119.751 44.9762 119.751 45.032 119.695 45.0878L117.519 47.8779C117.91 48.3243 118.3 48.7707 118.635 49.2729C119.026 49.7194 119.361 50.2216 119.695 50.7238C119.695 50.7796 119.751 50.7796 119.751 50.8354C119.751 50.8912 119.751 50.947 119.751 50.947C119.751 51.0586 119.695 51.1144 119.64 51.226C119.584 51.3376 119.472 51.3376 119.305 51.3376C119.137 51.3376 119.026 51.2818 118.97 51.1144C118.579 50.6122 118.245 50.11 117.854 49.6635C117.463 49.1613 117.129 48.7149 116.738 48.2685H115.901V50.8912C115.901 51.0028 115.845 51.1144 115.789 51.226C115.734 51.2818 115.622 51.3376 115.455 51.3376C115.343 51.3376 115.231 51.2818 115.176 51.226C115.12 51.226 115.064 51.1144 115.064 51.0028Z" fill="white"/>
<path d="M128.345 48.6033C128.345 48.9939 128.289 49.3288 128.177 49.6636C128.066 49.9984 127.898 50.2774 127.731 50.5564C127.508 50.7796 127.229 51.0028 126.894 51.1702C126.559 51.3376 126.169 51.3934 125.666 51.3934C125.164 51.3934 124.774 51.3376 124.439 51.1702C124.104 51.0028 123.825 50.8354 123.602 50.5564C123.379 50.3332 123.211 49.9984 123.155 49.6636C123.1 49.3288 122.988 48.9381 122.988 48.6033V47.2083C122.988 46.8177 123.044 46.4829 123.155 46.1481C123.267 45.8133 123.434 45.5342 123.602 45.2552C123.825 45.032 124.104 44.8088 124.439 44.6414C124.774 44.474 125.164 44.4182 125.666 44.4182C126.169 44.4182 126.559 44.474 126.894 44.6414C127.229 44.8088 127.508 44.9762 127.731 45.2552C127.954 45.4784 128.122 45.8133 128.177 46.1481C128.289 46.4829 128.345 46.8735 128.345 47.2083V48.6033ZM127.452 47.2083C127.452 46.9293 127.396 46.6503 127.34 46.4271C127.285 46.2039 127.173 45.9807 127.006 45.8133C126.727 45.4784 126.224 45.311 125.666 45.311C125.053 45.311 124.606 45.4784 124.271 45.8133C123.992 46.1481 123.881 46.6503 123.881 47.2083V48.6033C123.881 49.2172 123.992 49.7194 124.271 49.9984C124.55 50.3332 125.053 50.5006 125.666 50.5006C126.28 50.5006 126.727 50.3332 127.006 49.9984C127.173 49.831 127.229 49.6078 127.34 49.3846C127.396 49.1613 127.452 48.8823 127.452 48.6033V47.2083Z" fill="white"/>
<path d="M132.809 51.2817C132.697 51.2817 132.586 51.2259 132.474 51.1701C132.418 51.1142 132.362 51.0026 132.362 50.8352V44.9203C132.362 44.8087 132.418 44.6971 132.474 44.6413C132.53 44.5855 132.641 44.5297 132.809 44.5297H134.706C135.376 44.5297 135.934 44.6971 136.213 45.0319C136.547 45.3667 136.715 45.7573 136.715 46.3153V46.5385C136.715 46.7617 136.659 46.9849 136.547 47.2639C136.436 47.4871 136.268 47.7104 135.934 47.8778C136.324 48.0452 136.603 48.2684 136.715 48.5474C136.882 48.8264 136.938 49.1054 136.938 49.3844V49.6076C136.938 50.1098 136.771 50.5562 136.436 50.891C136.101 51.2259 135.543 51.3933 134.762 51.3933H132.809V51.2817ZM133.255 45.2551V47.4871H134.483C134.985 47.4871 135.32 47.3755 135.543 47.2081C135.766 47.0407 135.878 46.8175 135.878 46.4827V46.3153C135.878 46.0363 135.766 45.7573 135.599 45.5899C135.431 45.4225 135.097 45.3109 134.594 45.3109H133.255V45.2551ZM133.255 48.2126V50.5004H134.873C135.152 50.5004 135.376 50.5004 135.543 50.4446C135.71 50.3888 135.822 50.333 135.934 50.2214C136.045 50.1098 136.101 49.9982 136.157 49.8866C136.213 49.775 136.213 49.6076 136.213 49.4402V49.217C136.213 48.8822 136.101 48.659 135.822 48.4358C135.599 48.2684 135.208 48.1568 134.762 48.1568H133.255V48.2126Z" fill="white"/>
<path d="M146.145 48.6033C146.145 48.9939 146.09 49.3288 145.978 49.6636C145.866 49.9984 145.699 50.2774 145.532 50.5564C145.308 50.7796 145.029 51.0028 144.695 51.1702C144.36 51.3376 143.969 51.3934 143.467 51.3934C142.965 51.3934 142.574 51.3376 142.239 51.1702C141.905 51.0028 141.626 50.8354 141.402 50.5564C141.179 50.3332 141.012 49.9984 140.956 49.6636C140.9 49.3288 140.789 48.9381 140.789 48.6033V47.2083C140.789 46.8177 140.844 46.4829 140.956 46.1481C141.068 45.8133 141.235 45.5342 141.402 45.2552C141.626 45.032 141.905 44.8088 142.239 44.6414C142.574 44.474 142.965 44.4182 143.467 44.4182C143.969 44.4182 144.36 44.474 144.695 44.6414C145.029 44.8088 145.308 44.9762 145.532 45.2552C145.755 45.4784 145.922 45.8133 145.978 46.1481C146.034 46.4829 146.145 46.8735 146.145 47.2083V48.6033ZM145.253 47.2083C145.253 46.9293 145.197 46.6503 145.141 46.4271C145.085 46.2039 144.974 45.9807 144.806 45.8133C144.527 45.4784 144.025 45.311 143.467 45.311C142.853 45.311 142.407 45.4784 142.072 45.8133C141.793 46.1481 141.681 46.6503 141.681 47.2083V48.6033C141.681 49.2172 141.793 49.7194 142.072 49.9984C142.351 50.3332 142.853 50.5006 143.467 50.5006C144.081 50.5006 144.527 50.3332 144.806 49.9984C144.974 49.831 145.029 49.6078 145.141 49.3846C145.197 49.1613 145.253 48.8823 145.253 48.6033V47.2083Z" fill="white"/>
<path d="M154.516 44.9203C154.516 45.0319 154.46 45.1435 154.404 45.1993C154.349 45.2551 154.237 45.3109 154.125 45.3109H151.056V51.0026C151.056 51.1143 151 51.2259 150.945 51.2817C150.833 51.3375 150.721 51.3933 150.61 51.3933C150.498 51.3933 150.387 51.3375 150.331 51.2817C150.275 51.2259 150.219 51.1143 150.219 51.0026V44.9203C150.219 44.8087 150.275 44.6971 150.331 44.6413C150.387 44.5855 150.498 44.5297 150.61 44.5297H154.125C154.237 44.5297 154.349 44.5855 154.404 44.6413C154.516 44.6971 154.516 44.8087 154.516 44.9203Z" fill="white"/>
<path d="M162.942 48.6033C162.942 48.9939 162.886 49.3288 162.775 49.6636C162.663 49.9984 162.496 50.2774 162.328 50.5564C162.105 50.7796 161.826 51.0028 161.491 51.1702C161.156 51.3376 160.766 51.3934 160.263 51.3934C159.761 51.3934 159.371 51.3376 159.036 51.1702C158.701 51.0028 158.422 50.8354 158.199 50.5564C157.976 50.3332 157.808 49.9984 157.752 49.6636C157.697 49.3288 157.585 48.9381 157.585 48.6033V47.2083C157.585 46.8177 157.641 46.4829 157.752 46.1481C157.864 45.8133 158.031 45.5342 158.199 45.2552C158.422 45.032 158.701 44.8088 159.036 44.6414C159.371 44.474 159.761 44.4182 160.263 44.4182C160.766 44.4182 161.156 44.474 161.491 44.6414C161.826 44.8088 162.105 44.9762 162.328 45.2552C162.551 45.4784 162.719 45.8133 162.775 46.1481C162.83 46.4829 162.942 46.8735 162.942 47.2083V48.6033ZM162.105 47.2083C162.105 46.9293 162.049 46.6503 161.993 46.4271C161.938 46.2039 161.826 45.9807 161.659 45.8133C161.38 45.4784 160.877 45.311 160.319 45.311C159.705 45.311 159.259 45.4784 158.924 45.8133C158.645 46.1481 158.534 46.6503 158.534 47.2083V48.6033C158.534 49.2172 158.645 49.7194 158.924 49.9984C159.203 50.3332 159.705 50.5006 160.319 50.5006C160.933 50.5006 161.38 50.3332 161.659 49.9984C161.826 49.831 161.882 49.6078 161.993 49.3846C162.049 49.1613 162.105 48.8823 162.105 48.6033V47.2083Z" fill="white"/>
<path d="M186.769 51.2817C186.657 51.2817 186.546 51.2259 186.434 51.1701C186.378 51.1142 186.323 51.0026 186.323 50.8352V44.9203C186.323 44.8087 186.378 44.6971 186.434 44.6413C186.49 44.5855 186.602 44.5297 186.769 44.5297H188.666C189.336 44.5297 189.894 44.6971 190.173 45.0319C190.508 45.3667 190.675 45.7573 190.675 46.3153V46.5385C190.675 46.7617 190.619 46.9849 190.508 47.2639C190.396 47.4871 190.229 47.7104 189.894 47.8778C190.285 48.0452 190.564 48.2684 190.675 48.5474C190.843 48.8264 190.898 49.1054 190.898 49.3844V49.6076C190.898 50.1098 190.731 50.5562 190.396 50.891C190.061 51.2259 189.503 51.3933 188.722 51.3933H186.769V51.2817ZM187.215 45.2551V47.4871H188.443C188.945 47.4871 189.28 47.3755 189.503 47.2081C189.727 47.0407 189.838 46.8175 189.838 46.4827V46.3153C189.838 46.0363 189.727 45.7573 189.559 45.5899C189.392 45.4225 189.057 45.3109 188.555 45.3109H187.215V45.2551ZM187.215 48.2126V50.5004H188.834C189.113 50.5004 189.336 50.5004 189.503 50.4446C189.671 50.3888 189.782 50.333 189.894 50.2214C190.006 50.1098 190.061 49.9982 190.117 49.8866C190.173 49.775 190.173 49.6076 190.173 49.4402V49.217C190.173 48.8822 190.061 48.659 189.782 48.4358C189.559 48.2684 189.169 48.1568 188.722 48.1568H187.215V48.2126Z" fill="white"/>
<path d="M195.474 51.0028V44.9204C195.474 44.8088 195.53 44.6972 195.586 44.6414C195.641 44.5298 195.753 44.5298 195.92 44.5298C196.032 44.5298 196.144 44.5856 196.199 44.6414C196.311 44.753 196.311 44.8088 196.311 44.9204V49.3287L199.771 45.4226V44.8646C199.771 44.753 199.827 44.6414 199.882 44.5856C199.994 44.474 200.05 44.474 200.161 44.474C200.273 44.474 200.385 44.5298 200.496 44.5856C200.552 44.6972 200.608 44.753 200.608 44.8646V50.947C200.608 51.0586 200.552 51.1702 200.496 51.226C200.44 51.3376 200.329 51.3376 200.161 51.3376C200.05 51.3376 199.938 51.2818 199.882 51.226C199.771 51.1144 199.771 51.0586 199.771 50.947V46.5387L196.311 50.4448V50.947C196.311 51.0586 196.255 51.1702 196.199 51.226C196.088 51.3376 196.032 51.3376 195.92 51.3376C195.809 51.3376 195.697 51.2818 195.586 51.226C195.474 51.226 195.474 51.1144 195.474 51.0028Z" fill="white"/>
<path d="M209.313 50.947C209.313 51.0586 209.257 51.1702 209.202 51.2818C209.09 51.3934 209.034 51.3934 208.867 51.3934C208.755 51.3934 208.644 51.3376 208.532 51.2818C208.42 51.1702 208.42 51.1144 208.42 50.947V48.3243H207.583C207.193 48.7707 206.802 49.2729 206.467 49.7193C206.132 50.1657 205.742 50.6679 205.351 51.226C205.295 51.2818 205.24 51.3376 205.184 51.3934C205.128 51.4492 205.072 51.4492 204.961 51.4492C204.849 51.4492 204.737 51.3934 204.682 51.2818C204.626 51.1702 204.57 51.0586 204.57 51.0028C204.57 50.8912 204.626 50.8354 204.682 50.7795C205.016 50.2773 205.407 49.8309 205.742 49.3845C206.132 48.9381 206.467 48.4917 206.858 47.9895L204.682 45.1994C204.682 45.1436 204.626 45.0878 204.626 45.0878C204.626 45.032 204.626 44.9762 204.626 44.9762C204.626 44.8646 204.682 44.8088 204.737 44.6972C204.793 44.5856 204.905 44.5856 205.072 44.5856C205.24 44.5856 205.351 44.6414 205.463 44.753L207.695 47.6547H208.532V45.032C208.532 44.9204 208.588 44.8088 208.644 44.6972C208.755 44.6414 208.867 44.5856 208.978 44.5856C209.09 44.5856 209.202 44.6414 209.313 44.6972C209.425 44.753 209.425 44.8646 209.425 45.032V47.6547H210.262L212.494 44.753C212.55 44.6414 212.717 44.5856 212.829 44.5856C212.996 44.5856 213.108 44.6414 213.163 44.6972C213.219 44.8088 213.275 44.8646 213.275 44.9762C213.275 45.032 213.275 45.0878 213.275 45.0878C213.275 45.1436 213.275 45.1994 213.219 45.1994L210.987 47.9895C211.378 48.4359 211.768 48.9381 212.103 49.3845C212.494 49.8309 212.829 50.3331 213.163 50.7795C213.219 50.8354 213.219 50.947 213.219 51.0028C213.219 51.1144 213.163 51.226 213.108 51.2818C213.052 51.3934 212.94 51.4492 212.773 51.4492C212.717 51.4492 212.605 51.4492 212.55 51.3934C212.494 51.3376 212.438 51.2818 212.382 51.226C212.047 50.7237 211.657 50.2215 211.266 49.7193C210.876 49.2171 210.541 48.7707 210.15 48.3243H209.313V50.947Z" fill="white"/>
<path d="M221.98 47.822C221.98 47.9336 221.924 48.0452 221.869 48.101C221.813 48.1568 221.701 48.2126 221.59 48.2126H217.628V48.6032C217.628 49.217 217.739 49.6634 218.018 50.054C218.297 50.4446 218.744 50.612 219.358 50.612C219.748 50.612 220.139 50.5562 220.418 50.5004C220.697 50.4446 220.976 50.333 221.199 50.1656C221.311 50.1098 221.422 50.1098 221.478 50.1656C221.59 50.2214 221.645 50.2772 221.701 50.3888C221.757 50.5004 221.757 50.5562 221.701 50.6678C221.701 50.7794 221.59 50.8352 221.534 50.891C220.976 51.2259 220.25 51.4491 219.358 51.4491C218.911 51.4491 218.465 51.3933 218.186 51.2259C217.851 51.0585 217.572 50.891 217.405 50.612C217.181 50.333 217.07 50.054 216.958 49.7192C216.846 49.3844 216.846 48.9938 216.846 48.6032V47.3197C216.846 46.9291 216.902 46.5943 217.014 46.2595C217.125 45.9247 217.237 45.6457 217.46 45.3667C217.684 45.0877 217.907 44.9203 218.242 44.7529C218.576 44.5855 218.967 44.5297 219.413 44.5297C219.916 44.5297 220.306 44.5855 220.641 44.7529C220.976 44.9203 221.255 45.0877 221.422 45.3667C221.645 45.6457 221.757 45.9247 221.869 46.2595C221.98 46.5943 221.98 46.9849 221.98 47.3197V47.822ZM221.143 47.1523C221.143 46.5385 221.032 46.0921 220.753 45.7015C220.474 45.3109 220.027 45.1435 219.413 45.1435C218.8 45.1435 218.353 45.3109 218.074 45.7015C217.795 46.0921 217.684 46.5385 217.684 47.1523V47.4313H221.143V47.1523Z" fill="white"/>
<path d="M231.132 50.9468C231.132 51.0585 231.076 51.1701 231.02 51.2817C230.908 51.3933 230.852 51.3933 230.685 51.3933C230.573 51.3933 230.462 51.3375 230.406 51.2817C230.35 51.1701 230.294 51.1143 230.294 50.9468V48.101H227.281V50.9468C227.281 51.0585 227.225 51.1701 227.17 51.2817C227.058 51.3933 227.002 51.3933 226.835 51.3933C226.723 51.3933 226.612 51.3375 226.5 51.2817C226.388 51.1701 226.388 51.1143 226.388 50.9468V44.9203C226.388 44.8087 226.444 44.6971 226.5 44.6413C226.556 44.5855 226.667 44.5297 226.835 44.5297C226.946 44.5297 227.058 44.5855 227.17 44.6413C227.281 44.6971 227.281 44.8087 227.281 44.9203V47.3755H230.294V44.9203C230.294 44.8087 230.35 44.6971 230.406 44.6413C230.462 44.5855 230.573 44.5297 230.685 44.5297C230.797 44.5297 230.908 44.5855 231.02 44.6413C231.131 44.6971 231.132 44.8087 231.132 44.9203V50.9468Z" fill="white"/>
<path d="M235.874 51.0028V44.9204C235.874 44.8088 235.93 44.6972 235.986 44.6414C236.042 44.5298 236.153 44.5298 236.321 44.5298C236.432 44.5298 236.544 44.5856 236.6 44.6414C236.711 44.753 236.711 44.8088 236.711 44.9204V49.3287L240.171 45.4226V44.8646C240.171 44.753 240.227 44.6414 240.283 44.5856C240.394 44.474 240.45 44.474 240.562 44.474C240.673 44.474 240.785 44.5298 240.896 44.5856C240.952 44.6972 241.008 44.753 241.008 44.8646V50.947C241.008 51.0586 240.952 51.1702 240.896 51.226C240.841 51.3376 240.729 51.3376 240.562 51.3376C240.45 51.3376 240.338 51.2818 240.283 51.226C240.171 51.1144 240.171 51.0586 240.171 50.947V46.5387L236.711 50.4448V50.947C236.711 51.0586 236.655 51.1702 236.6 51.226C236.488 51.3376 236.432 51.3376 236.321 51.3376C236.209 51.3376 236.097 51.2818 235.986 51.226C235.93 51.226 235.874 51.1144 235.874 51.0028Z" fill="white"/>
<path d="M249.993 51.0026C249.993 51.1143 249.937 51.2259 249.881 51.2817C249.769 51.3375 249.714 51.3933 249.546 51.3933C249.435 51.3933 249.323 51.3375 249.267 51.2817C249.211 51.2259 249.156 51.1143 249.156 51.0026V48.4916H247.872C247.593 48.938 247.314 49.3844 247.035 49.8308C246.756 50.2772 246.533 50.7236 246.31 51.1701C246.254 51.2817 246.198 51.3375 246.142 51.3375C246.086 51.3933 245.975 51.3933 245.919 51.3933C245.807 51.3933 245.696 51.3375 245.64 51.2817C245.528 51.2259 245.528 51.1143 245.528 51.0026C245.528 50.9468 245.528 50.891 245.584 50.8352C245.584 50.7794 245.64 50.7236 245.696 50.612C245.919 50.2772 246.086 49.8866 246.31 49.496C246.533 49.1054 246.756 48.7148 246.979 48.38C246.477 48.2684 246.142 48.0452 245.919 47.7104C245.696 47.3755 245.584 47.0407 245.584 46.6501V46.2595C245.584 46.0363 245.64 45.8131 245.696 45.6457C245.752 45.4225 245.919 45.2551 246.086 45.0877C246.254 44.9203 246.477 44.8087 246.756 44.6971C247.035 44.5855 247.37 44.5297 247.76 44.5297H249.546C249.658 44.5297 249.769 44.5855 249.881 44.6413C249.993 44.6971 249.993 44.8087 249.993 44.9203V51.0026ZM249.1 47.7662V45.3109H247.76C247.481 45.3109 247.258 45.3667 247.091 45.4225C246.923 45.4783 246.756 45.5899 246.7 45.6457C246.589 45.7573 246.533 45.8689 246.477 45.9805C246.421 46.0921 246.421 46.2037 246.421 46.3153V46.7059C246.421 46.8175 246.421 46.9291 246.477 47.0407C246.533 47.1523 246.589 47.2639 246.7 47.3755C246.812 47.4871 246.923 47.5429 247.147 47.6546C247.37 47.7662 247.537 47.7662 247.816 47.7662H249.1Z" fill="white"/>
<path d="M180.464 44.5297C180.575 44.5297 180.687 44.5855 180.743 44.6413C180.799 44.6971 180.854 44.8087 180.854 44.9203V50.5004H181.58C181.691 50.5004 181.803 50.5562 181.859 50.612C181.97 50.6678 181.97 50.7794 181.97 50.891V52.6209C181.97 52.7325 181.915 52.8441 181.859 52.9557C181.747 53.0115 181.691 53.0673 181.58 53.0673C181.468 53.0673 181.357 53.0115 181.245 52.9557C181.189 52.8999 181.133 52.7883 181.133 52.6209V51.2259H175.553V52.6209C175.553 52.7325 175.497 52.8441 175.442 52.9557C175.386 53.0115 175.274 53.0673 175.107 53.0673C174.995 53.0673 174.884 53.0115 174.828 52.9557C174.716 52.8999 174.716 52.7883 174.716 52.6209V50.891C174.716 50.7794 174.772 50.6678 174.828 50.612C174.939 50.5562 174.995 50.5004 175.107 50.5004C175.553 50.5004 175.832 50.333 176 50.054C176.167 49.775 176.279 49.3286 176.279 48.7148V44.9203C176.279 44.8087 176.334 44.6971 176.39 44.6413C176.446 44.5855 176.558 44.5297 176.669 44.5297H180.464ZM179.962 50.5004V45.3109H177.227V48.7148C177.227 49.217 177.171 49.6076 177.06 49.8866C176.948 50.1656 176.837 50.333 176.725 50.5004H179.962Z" fill="white"/>
</svg>
