<svg width="38" height="33" viewBox="0 0 38 33" fill="none" xmlns="http://www.w3.org/2000/svg">
<path d="M9.11782 2C9.11782 0.895433 10.0133 0 11.1178 0H18.6228H26.1179C27.2224 0 28.1179 0.895429 28.1179 2L28.1179 11.2682C28.1179 17.4086 25.283 23.2049 20.4361 26.9747C19.8411 27.4375 19.9568 28.3682 20.6471 28.6711L25.0071 30.5843C25.9985 31.0193 25.6879 32.5 24.6053 32.5H18.6228H12.6361C11.5536 32.5 11.2428 31.0198 12.2339 30.5844L16.5893 28.6714C17.2794 28.3683 17.395 27.4378 16.8001 26.9751C11.9529 23.2051 9.11784 17.4084 9.11784 11.2677L9.11782 2Z" fill="#C4C4C4"/>
<path d="M8.11624 4H1.00097C0.295578 4 -0.188093 4.71067 0.0706981 5.36688L4.28194 16.0451C4.43261 16.4272 4.80154 16.6783 5.21222 16.6783H7.11625C7.66853 16.6783 8.11624 16.2305 8.11624 15.6783V15.1783H6.19561C5.79327 15.1783 5.43011 14.9371 5.27398 14.5663L2.11608 7.06631C1.83855 6.40717 2.32254 5.67825 3.03772 5.67825H7.11625C7.66853 5.67825 8.11624 5.23054 8.11624 4.67825V4Z" fill="#C4C4C4"/>
<path d="M29.1162 4H36.2315C36.9369 4 37.4205 4.71067 37.1618 5.36688L32.9505 16.0451C32.7998 16.4272 32.4309 16.6783 32.0202 16.6783H30.1162C29.5639 16.6783 29.1162 16.2305 29.1162 15.6783V15.1783H31.0368C31.4392 15.1783 31.8023 14.9371 31.9585 14.5663L35.1164 7.06631C35.3939 6.40717 34.9099 5.67825 34.1947 5.67825H30.1162C29.5639 5.67825 29.1162 5.23054 29.1162 4.67825V4Z" fill="#C4C4C4"/>
</svg>
